<svg width="2259" height="1448" xmlns="http://www.w3.org/2000/svg" xmlns:xlink="http://www.w3.org/1999/xlink" xml:space="preserve" overflow="hidden"><g transform="translate(-1086 -499)"><g><path d="M1870 1430.38C1870.07 1454.96 1849.97 1474.93 1825.12 1475 1800.27 1475.07 1780.07 1455.2 1780 1430.62 1780 1430.52 1780 1430.42 1780 1430.32Z" fill="#FFC7E5" fill-rule="evenodd" fill-opacity="1"/><path d="M2280 1061.78C2280.79 1275.52 2077.72 1449.33 1826.43 1450 1575.14 1450.67 1370.79 1277.95 1370 1064.22 1370 1063.19 1370 1062.17 1370.01 1061.14Z" fill="#FFC7E5" fill-rule="evenodd" fill-opacity="1"/><path d="M2280 1061.28C2281.16 1205.7 2078.4 1323.33 1827.12 1324 1575.83 1324.67 1371.17 1208.14 1370 1063.72 1370 1062.69 1370 1061.67 1370.01 1060.64Z" fill="#FFABD8" fill-rule="evenodd" fill-opacity="1"/><path d="M2279.98 1061.78C2282.35 1133.03 2080.57 1191.32 1829.29 1191.99 1578.01 1192.67 1372.39 1135.46 1370.02 1064.22 1369.99 1063.19 1370 1062.17 1370.05 1061.14Z" fill="#FF8CC9" fill-rule="evenodd" fill-opacity="1"/><path d="M2280.01 1064.22C2278.72 932.775 2481.61 825.675 2733.17 825.003 2984.73 824.331 3189.71 930.34 3190.99 1061.78 3191 1062.81 3191 1063.83 3190.99 1064.86Z" fill="#FFC7E5" fill-rule="evenodd" fill-opacity="1"/><path d="M2280.01 1064.22C2278.11 975.302 2480.5 902.677 2732.06 902.005 2983.61 901.332 3189.08 972.867 3190.99 1061.78 3191.01 1062.81 3191 1063.83 3190.97 1064.86Z" fill="#FFABD8" fill-rule="evenodd" fill-opacity="1"/><path d="M2280.05 1064.22C2276.18 1020.59 2476.94 984.681 2728.48 984.009 2980.02 983.336 3187.07 1018.16 3190.95 1061.78 3191.04 1062.81 3191.01 1063.83 3190.87 1064.86Z" fill="#FF8CC9" fill-rule="evenodd" fill-opacity="1"/><text fill="#FFFFFF" fill-opacity="1" font-family="Helvetica,Helvetica_MSFontService,sans-serif" font-style="normal" font-variant="normal" font-weight="700" font-stretch="normal" font-size="367" text-anchor="start" direction="ltr" writing-mode="lr-tb" unicode-bidi="normal" text-decoration="none" transform="matrix(1 0 0 1 1427.74 953)">S</text><text fill="#941651" fill-opacity="1" font-family="Helvetica,Helvetica_MSFontService,sans-serif" font-style="normal" font-variant="normal" font-weight="700" font-stretch="normal" font-size="367" text-anchor="start" direction="ltr" writing-mode="lr-tb" unicode-bidi="normal" text-decoration="none" transform="matrix(1 0 0 1 1672.38 953)">OA</text><text fill="#FFFFFF" fill-opacity="1" font-family="Helvetica,Helvetica_MSFontService,sans-serif" font-style="normal" font-variant="normal" font-weight="700" font-stretch="normal" font-size="367" text-anchor="start" direction="ltr" writing-mode="lr-tb" unicode-bidi="normal" text-decoration="none" transform="matrix(1 0 0 1 2348.56 1405)">NBP</text><path d="M1388.83 1040.5 1388.83 1060.23C1388.83 1070.36 1380.63 1078.56 1370.5 1078.56 1360.38 1078.56 1352.17 1070.36 1352.17 1060.23L1352.17 1040.5C1352.17 1030.37 1360.37 1022.17 1370.5 1022.17 1380.63 1022.17 1388.83 1030.37 1388.83 1040.5ZM1333.83 1058.83 1370.5 875.5 1407.17 1058.83ZM1407.17 1041.9 1370.5 1225.23 1333.83 1041.9Z" fill="#941651" fill-rule="nonzero" fill-opacity="1"/><path d="M1327.59 1042.82 1411.99 1042.82C1419.27 1042.82 1425.17 1048.72 1425.17 1056 1425.17 1063.28 1419.27 1069.18 1411.99 1069.18L1327.59 1069.18C1320.32 1069.18 1314.42 1063.28 1314.42 1056 1314.42 1048.72 1320.32 1042.82 1327.59 1042.82ZM1340.77 1082.35 1209 1056 1340.77 1029.65ZM1398.82 1029.65 1530.59 1056 1398.82 1082.35Z" fill="#941651" fill-rule="nonzero" fill-opacity="1"/><path d="M1374.07 1108.73 1289 969 1421.27 1065.27ZM1364.7 1003.84 1449.78 1143.58 1317.5 1047.31Z" fill="#941651" fill-rule="nonzero" fill-opacity="1"/><path d="M85.1199 139.705 0 0 132.305 96.2199ZM75.767 34.8714 160.887 174.576 28.582 78.3563Z" fill="#941651" fill-rule="nonzero" fill-opacity="1" transform="matrix(1 0 0 -1 1289 1143.58)"/><text fill="#FFFFFF" fill-opacity="1" font-family="Helvetica,Helvetica_MSFontService,sans-serif" font-style="normal" font-variant="normal" font-weight="700" font-stretch="normal" font-size="147" text-anchor="start" direction="ltr" writing-mode="lr-tb" unicode-bidi="normal" text-decoration="none" transform="matrix(1 0 0 1 1428.2 1642)">S</text><text fill="#FFFFFF" fill-opacity="1" font-family="Helvetica,Helvetica_MSFontService,sans-serif" font-style="normal" font-variant="normal" font-weight="400" font-stretch="normal" font-size="147" text-anchor="start" direction="ltr" writing-mode="lr-tb" unicode-bidi="normal" text-decoration="none" transform="matrix(1 0 0 1 1526.17 1642)">tochastic </text><text fill="#941651" fill-opacity="1" font-family="Helvetica,Helvetica_MSFontService,sans-serif" font-style="normal" font-variant="normal" font-weight="700" font-stretch="normal" font-size="147" text-anchor="start" direction="ltr" writing-mode="lr-tb" unicode-bidi="normal" text-decoration="none" transform="matrix(1 0 0 1 2144.92 1642)">O</text><text fill="#941651" fill-opacity="1" font-family="Helvetica,Helvetica_MSFontService,sans-serif" font-style="normal" font-variant="normal" font-weight="400" font-stretch="normal" font-size="147" text-anchor="start" direction="ltr" writing-mode="lr-tb" unicode-bidi="normal" text-decoration="none" transform="matrix(1 0 0 1 2258.93 1642)">pto</text><text fill="#941651" fill-opacity="1" font-family="Helvetica,Helvetica_MSFontService,sans-serif" font-style="normal" font-variant="normal" font-weight="700" font-stretch="normal" font-size="147" text-anchor="start" direction="ltr" writing-mode="lr-tb" unicode-bidi="normal" text-decoration="none" transform="matrix(1 0 0 1 2462.31 1642)">A</text><text fill="#941651" fill-opacity="1" font-family="Helvetica,Helvetica_MSFontService,sans-serif" font-style="normal" font-variant="normal" font-weight="400" font-stretch="normal" font-size="147" text-anchor="start" direction="ltr" writing-mode="lr-tb" unicode-bidi="normal" text-decoration="none" transform="matrix(1 0 0 1 2568.3 1642)">coustic</text><text fill="#FFFFFF" fill-opacity="1" font-family="Helvetica,Helvetica_MSFontService,sans-serif" font-style="normal" font-variant="normal" font-weight="700" font-stretch="normal" font-size="147" text-anchor="start" direction="ltr" writing-mode="lr-tb" unicode-bidi="normal" text-decoration="none" transform="matrix(1 0 0 1 1347.12 1818)">N</text><text fill="#FFFFFF" fill-opacity="1" font-family="Helvetica,Helvetica_MSFontService,sans-serif" font-style="normal" font-variant="normal" font-weight="400" font-stretch="normal" font-size="147" text-anchor="start" direction="ltr" writing-mode="lr-tb" unicode-bidi="normal" text-decoration="none" transform="matrix(1 0 0 1 1453.11 1818)">umerical </text><text fill="#FFFFFF" fill-opacity="1" font-family="Helvetica,Helvetica_MSFontService,sans-serif" font-style="normal" font-variant="normal" font-weight="700" font-stretch="normal" font-size="147" text-anchor="start" direction="ltr" writing-mode="lr-tb" unicode-bidi="normal" text-decoration="none" transform="matrix(1 0 0 1 2047.22 1818)">B</text><text fill="#FFFFFF" fill-opacity="1" font-family="Helvetica,Helvetica_MSFontService,sans-serif" font-style="normal" font-variant="normal" font-weight="400" font-stretch="normal" font-size="147" text-anchor="start" direction="ltr" writing-mode="lr-tb" unicode-bidi="normal" text-decoration="none" transform="matrix(1 0 0 1 2153.21 1818)">reast </text><text fill="#FFFFFF" fill-opacity="1" font-family="Helvetica,Helvetica_MSFontService,sans-serif" font-style="normal" font-variant="normal" font-weight="700" font-stretch="normal" font-size="147" text-anchor="start" direction="ltr" writing-mode="lr-tb" unicode-bidi="normal" text-decoration="none" transform="matrix(1 0 0 1 2519.31 1818)">P</text><text fill="#FFFFFF" fill-opacity="1" font-family="Helvetica,Helvetica_MSFontService,sans-serif" font-style="normal" font-variant="normal" font-weight="400" font-stretch="normal" font-size="147" text-anchor="start" direction="ltr" writing-mode="lr-tb" unicode-bidi="normal" text-decoration="none" transform="matrix(1 0 0 1 2617.28 1818)">hantom</text></g></g></svg>