<svg width="3319" height="1224" xmlns="http://www.w3.org/2000/svg" xmlns:xlink="http://www.w3.org/1999/xlink" xml:space="preserve" overflow="hidden"><g transform="translate(-517 -678)"><g><path d="M1302 1606.38C1302.07 1630.96 1281.97 1650.93 1257.12 1651 1232.27 1651.07 1212.07 1631.2 1212 1606.62 1212 1606.52 1212 1606.42 1212 1606.32Z" fill="#FFC7E5" fill-rule="evenodd" fill-opacity="1"/><path d="M1712 1236.78C1712.79 1450.52 1509.5 1624.33 1257.93 1625 1006.37 1625.67 801.794 1452.95 801.002 1239.22 800.999 1238.19 801 1237.17 801.005 1236.14Z" fill="#FFC7E5" fill-rule="evenodd" fill-opacity="1"/><path d="M1711.99 1237.28C1713.17 1381.7 1510.18 1499.32 1258.62 1500 1007.06 1500.67 802.176 1384.14 801.005 1239.72 800.997 1238.69 800.999 1237.67 801.011 1236.64Z" fill="#FFABD8" fill-rule="evenodd" fill-opacity="1"/><path d="M1711.98 1236.78C1714.35 1308.02 1512.35 1366.32 1260.8 1366.99 1009.24 1367.67 803.395 1310.46 801.021 1239.22 800.986 1238.19 800.995 1237.17 801.048 1236.14Z" fill="#FF8CC9" fill-rule="evenodd" fill-opacity="1"/><path d="M1712.01 1239.22C1710.72 1107.77 1913.39 1000.67 2164.68 1000 2415.96 999.331 2620.71 1105.34 2621.99 1236.78 2622 1237.81 2622 1238.83 2621.99 1239.86Z" fill="#FFC7E5" fill-rule="evenodd" fill-opacity="1"/><path d="M1712.01 1239.22C1710.11 1150.3 1912.28 1077.68 2163.56 1077 2414.85 1076.33 2620.09 1147.87 2621.99 1236.78 2622.01 1237.81 2622 1238.83 2621.97 1239.86Z" fill="#FFABD8" fill-rule="evenodd" fill-opacity="1"/><path d="M1712.05 1239.22C1708.19 1195.59 1908.74 1159.68 2160 1159.01 2411.26 1158.34 2618.08 1193.16 2621.95 1236.78 2622.04 1237.81 2622.01 1238.83 2621.87 1239.86Z" fill="#FF8CC9" fill-rule="evenodd" fill-opacity="1"/><text fill="#000000" fill-opacity="1" font-family="Helvetica,Helvetica_MSFontService,sans-serif" font-style="normal" font-variant="normal" font-weight="700" font-stretch="normal" font-size="367" text-anchor="start" direction="ltr" writing-mode="lr-tb" unicode-bidi="normal" text-decoration="none" transform="matrix(1 0 0 1 859.336 1128)">S</text><text fill="#941651" fill-opacity="1" font-family="Helvetica,Helvetica_MSFontService,sans-serif" font-style="normal" font-variant="normal" font-weight="700" font-stretch="normal" font-size="367" text-anchor="start" direction="ltr" writing-mode="lr-tb" unicode-bidi="normal" text-decoration="none" transform="matrix(1 0 0 1 1103.97 1128)">OA</text><text fill="#000000" fill-opacity="1" font-family="Helvetica,Helvetica_MSFontService,sans-serif" font-style="normal" font-variant="normal" font-weight="700" font-stretch="normal" font-size="367" text-anchor="start" direction="ltr" writing-mode="lr-tb" unicode-bidi="normal" text-decoration="none" transform="matrix(1 0 0 1 1780.16 1580)">NBP</text><path d="M820.834 1215.5 820.834 1235.23C820.834 1245.36 812.626 1253.56 802.5 1253.56 792.375 1253.56 784.167 1245.36 784.167 1235.23L784.167 1215.5C784.167 1205.37 792.375 1197.17 802.5 1197.17 812.626 1197.17 820.834 1205.37 820.834 1215.5ZM765.834 1233.83 802.5 1050.5 839.167 1233.83ZM839.167 1216.9 802.501 1400.23 765.834 1216.9Z" fill="#941651" fill-rule="nonzero" fill-opacity="1"/><path d="M759.594 1217.82 843.994 1217.82C851.271 1217.82 857.171 1223.72 857.171 1231 857.171 1238.28 851.271 1244.18 843.994 1244.18L759.594 1244.18C752.316 1244.18 746.417 1238.28 746.417 1231 746.417 1223.72 752.316 1217.82 759.594 1217.82ZM772.771 1257.35 641 1231 772.771 1204.65ZM830.817 1204.65 962.587 1231 830.816 1257.35Z" fill="#941651" fill-rule="nonzero" fill-opacity="1"/><path d="M806.072 1283.73 721 1144 853.272 1240.27ZM796.704 1178.84 881.776 1318.58 749.504 1222.31Z" fill="#941651" fill-rule="nonzero" fill-opacity="1"/><path d="M85.1199 139.705 0 0 132.305 96.2199ZM75.767 34.8714 160.887 174.576 28.582 78.3563Z" fill="#941651" fill-rule="nonzero" fill-opacity="1" transform="matrix(1 0 0 -1 721 1318.58)"/><text fill="#000000" fill-opacity="1" font-family="Helvetica,Helvetica_MSFontService,sans-serif" font-style="normal" font-variant="normal" font-weight="700" font-stretch="normal" font-size="147" text-anchor="start" direction="ltr" writing-mode="lr-tb" unicode-bidi="normal" text-decoration="none" transform="matrix(1 0 0 1 2879.82 1022)">S</text><text fill="#000000" fill-opacity="1" font-family="Helvetica,Helvetica_MSFontService,sans-serif" font-style="normal" font-variant="normal" font-weight="400" font-stretch="normal" font-size="147" text-anchor="start" direction="ltr" writing-mode="lr-tb" unicode-bidi="normal" text-decoration="none" transform="matrix(1 0 0 1 2977.79 1022)">tochastic </text><text fill="#941651" fill-opacity="1" font-family="Helvetica,Helvetica_MSFontService,sans-serif" font-style="normal" font-variant="normal" font-weight="700" font-stretch="normal" font-size="147" text-anchor="start" direction="ltr" writing-mode="lr-tb" unicode-bidi="normal" text-decoration="none" transform="matrix(1 0 0 1 2778.14 1198)">O</text><text fill="#941651" fill-opacity="1" font-family="Helvetica,Helvetica_MSFontService,sans-serif" font-style="normal" font-variant="normal" font-weight="400" font-stretch="normal" font-size="147" text-anchor="start" direction="ltr" writing-mode="lr-tb" unicode-bidi="normal" text-decoration="none" transform="matrix(1 0 0 1 2892.15 1198)">pto</text><text fill="#941651" fill-opacity="1" font-family="Helvetica,Helvetica_MSFontService,sans-serif" font-style="normal" font-variant="normal" font-weight="700" font-stretch="normal" font-size="147" text-anchor="start" direction="ltr" writing-mode="lr-tb" unicode-bidi="normal" text-decoration="none" transform="matrix(1 0 0 1 3095.53 1198)">A</text><text fill="#941651" fill-opacity="1" font-family="Helvetica,Helvetica_MSFontService,sans-serif" font-style="normal" font-variant="normal" font-weight="400" font-stretch="normal" font-size="147" text-anchor="start" direction="ltr" writing-mode="lr-tb" unicode-bidi="normal" text-decoration="none" transform="matrix(1 0 0 1 3201.52 1198)">coustic</text><text fill="#000000" fill-opacity="1" font-family="Helvetica,Helvetica_MSFontService,sans-serif" font-style="normal" font-variant="normal" font-weight="700" font-stretch="normal" font-size="147" text-anchor="start" direction="ltr" writing-mode="lr-tb" unicode-bidi="normal" text-decoration="none" transform="matrix(1 0 0 1 2888.14 1374)">N</text><text fill="#000000" fill-opacity="1" font-family="Helvetica,Helvetica_MSFontService,sans-serif" font-style="normal" font-variant="normal" font-weight="400" font-stretch="normal" font-size="147" text-anchor="start" direction="ltr" writing-mode="lr-tb" unicode-bidi="normal" text-decoration="none" transform="matrix(1 0 0 1 2994.13 1374)">umerical </text><text fill="#000000" fill-opacity="1" font-family="Helvetica,Helvetica_MSFontService,sans-serif" font-style="normal" font-variant="normal" font-weight="700" font-stretch="normal" font-size="147" text-anchor="start" direction="ltr" writing-mode="lr-tb" unicode-bidi="normal" text-decoration="none" transform="matrix(1 0 0 1 2688.76 1550)">B</text><text fill="#000000" fill-opacity="1" font-family="Helvetica,Helvetica_MSFontService,sans-serif" font-style="normal" font-variant="normal" font-weight="400" font-stretch="normal" font-size="147" text-anchor="start" direction="ltr" writing-mode="lr-tb" unicode-bidi="normal" text-decoration="none" transform="matrix(1 0 0 1 2794.75 1550)">reast </text><text fill="#000000" fill-opacity="1" font-family="Helvetica,Helvetica_MSFontService,sans-serif" font-style="normal" font-variant="normal" font-weight="700" font-stretch="normal" font-size="147" text-anchor="start" direction="ltr" writing-mode="lr-tb" unicode-bidi="normal" text-decoration="none" transform="matrix(1 0 0 1 3160.85 1550)">P</text><text fill="#000000" fill-opacity="1" font-family="Helvetica,Helvetica_MSFontService,sans-serif" font-style="normal" font-variant="normal" font-weight="400" font-stretch="normal" font-size="147" text-anchor="start" direction="ltr" writing-mode="lr-tb" unicode-bidi="normal" text-decoration="none" transform="matrix(1 0 0 1 3258.82 1550)">hantom</text></g></g></svg>